<mxfile host="Electron" modified="2023-10-17T20:58:52.766Z" agent="Mozilla/5.0 (Macintosh; Intel Mac OS X 10_15_7) AppleWebKit/537.36 (KHTML, like Gecko) draw.io/22.0.2 Chrome/114.0.5735.289 Electron/25.8.4 Safari/537.36" etag="dlK5-V9Lqbz_-8G3XtJq" version="22.0.2" type="device">
  <diagram name="Side-1" id="L13B_8dKzI9h2fTyULZp">
    <mxGraphModel dx="2710" dy="1380" grid="1" gridSize="10" guides="1" tooltips="1" connect="1" arrows="1" fold="1" page="1" pageScale="1" pageWidth="827" pageHeight="1169" math="0" shadow="0">
      <root>
        <mxCell id="0" />
        <mxCell id="1" parent="0" />
        <mxCell id="ih5rEid3sKnyZheTFn35-23" value="" style="swimlane;startSize=0;swimlaneFillColor=default;" vertex="1" parent="1">
          <mxGeometry x="-800" y="79.37" width="2160" height="1000.63" as="geometry" />
        </mxCell>
        <mxCell id="I9UYTtLKanYau_QNqnks-24" value="&lt;font style=&quot;font-size: 9px;&quot;&gt;&lt;b&gt;Besked skal printes i shell: &lt;br&gt;&lt;/b&gt;&lt;i&gt;Vi værdsætter din tid, vi har registret din oplysninger og du &lt;br&gt;kan nu sende besked til serveren&lt;/i&gt;&lt;/font&gt;" style="shape=parallelogram;perimeter=parallelogramPerimeter;whiteSpace=wrap;html=1;fixedSize=1;fontFamily=Avenir Next;" parent="ih5rEid3sKnyZheTFn35-23" vertex="1">
          <mxGeometry x="680" y="790.95" width="198.74" height="60" as="geometry" />
        </mxCell>
        <mxCell id="I9UYTtLKanYau_QNqnks-21" value="&lt;b&gt;Klient skal input servers&lt;br&gt;&lt;/b&gt;&lt;i&gt;ip adresse&lt;/i&gt;" style="shape=parallelogram;perimeter=parallelogramPerimeter;whiteSpace=wrap;html=1;fixedSize=1;fontFamily=Avenir Next;fontSize=9;" parent="ih5rEid3sKnyZheTFn35-23" vertex="1">
          <mxGeometry x="680" y="710.95" width="198.74" height="59.37" as="geometry" />
        </mxCell>
        <mxCell id="I9UYTtLKanYau_QNqnks-6" value="&lt;font style=&quot;font-size: 9px;&quot;&gt;&lt;b&gt;Besked skal printes i shell:&lt;/b&gt; &lt;br&gt;&lt;i&gt;Velkommen til SSO &lt;br style=&quot;font-size: 9px;&quot;&gt;klient program&lt;/i&gt;&lt;/font&gt;" style="shape=parallelogram;perimeter=parallelogramPerimeter;whiteSpace=wrap;html=1;fixedSize=1;fontFamily=Avenir Next;align=center;verticalAlign=middle;fontSize=9;" parent="ih5rEid3sKnyZheTFn35-23" vertex="1">
          <mxGeometry x="680" y="230.95" width="201.24" height="59.37" as="geometry" />
        </mxCell>
        <mxCell id="I9UYTtLKanYau_QNqnks-9" value="&lt;b&gt;Besked skal printes i shell:&lt;br&gt;&lt;/b&gt;&lt;i&gt;Vi vil nu bede om nogle oplysninger så vi&lt;br style=&quot;font-size: 9px;&quot;&gt;&amp;nbsp;kan identificere dig&lt;/i&gt;" style="shape=parallelogram;perimeter=parallelogramPerimeter;whiteSpace=wrap;html=1;fixedSize=1;fontFamily=Avenir Next;fontSize=9;" parent="ih5rEid3sKnyZheTFn35-23" vertex="1">
          <mxGeometry x="680" y="310.95" width="200" height="60" as="geometry" />
        </mxCell>
        <mxCell id="I9UYTtLKanYau_QNqnks-12" value="&lt;b&gt;Besked skal printes i shell:&lt;/b&gt;&lt;div style=&quot;font-size: 9px;&quot;&gt;&lt;span style=&quot;background-color: initial;&quot;&gt;Oplysningerne, vi vil bede om, er hvilken organisation du repræsenterer, navn samt server ip, du forsøger at forbinde til&lt;/span&gt;&lt;/div&gt;" style="shape=parallelogram;perimeter=parallelogramPerimeter;whiteSpace=wrap;html=1;fixedSize=1;fontFamily=Avenir Next;fontSize=9;" parent="ih5rEid3sKnyZheTFn35-23" vertex="1">
          <mxGeometry x="680.62" y="390.95" width="200" height="60" as="geometry" />
        </mxCell>
        <mxCell id="I9UYTtLKanYau_QNqnks-15" value="&lt;b&gt;Klient skal input deres &lt;/b&gt;&lt;br&gt;&lt;i style=&quot;&quot;&gt;organisation&lt;/i&gt;" style="shape=parallelogram;perimeter=parallelogramPerimeter;whiteSpace=wrap;html=1;fixedSize=1;fontFamily=Avenir Next;fontSize=9;" parent="ih5rEid3sKnyZheTFn35-23" vertex="1">
          <mxGeometry x="680" y="470.95" width="198.74" height="59.37" as="geometry" />
        </mxCell>
        <mxCell id="I9UYTtLKanYau_QNqnks-17" value="&lt;font style=&quot;font-size: 9px;&quot;&gt;&lt;b&gt;Klient skal input deres&lt;br&gt;&lt;/b&gt;&lt;i style=&quot;&quot;&gt;fornavn og efternavn&lt;/i&gt;&lt;/font&gt;" style="shape=parallelogram;perimeter=parallelogramPerimeter;whiteSpace=wrap;html=1;fixedSize=1;fontFamily=Avenir Next;" parent="ih5rEid3sKnyZheTFn35-23" vertex="1">
          <mxGeometry x="676.24" y="550.95" width="202.5" height="59.37" as="geometry" />
        </mxCell>
        <mxCell id="I9UYTtLKanYau_QNqnks-19" value="&lt;b&gt;Klient skal input deres &lt;br&gt;&lt;/b&gt;&lt;i&gt;ip adresse&lt;/i&gt;" style="shape=parallelogram;perimeter=parallelogramPerimeter;whiteSpace=wrap;html=1;fixedSize=1;fontFamily=Avenir Next;fontSize=9;" parent="ih5rEid3sKnyZheTFn35-23" vertex="1">
          <mxGeometry x="680" y="630.95" width="201.24" height="59.37" as="geometry" />
        </mxCell>
        <mxCell id="I9UYTtLKanYau_QNqnks-4" value="&lt;b&gt;Besked skal printes i shell:&lt;/b&gt; &lt;br&gt;&lt;i&gt;Produceret af gruppe 6&lt;/i&gt;" style="shape=parallelogram;perimeter=parallelogramPerimeter;whiteSpace=wrap;html=1;fixedSize=1;fontFamily=Avenir Next;fontSize=9;" parent="ih5rEid3sKnyZheTFn35-23" vertex="1">
          <mxGeometry x="680" y="150.95" width="201.24" height="59.37" as="geometry" />
        </mxCell>
        <mxCell id="ih5rEid3sKnyZheTFn35-34" style="edgeStyle=orthogonalEdgeStyle;rounded=0;orthogonalLoop=1;jettySize=auto;html=1;entryX=0.5;entryY=0;entryDx=0;entryDy=0;" edge="1" parent="ih5rEid3sKnyZheTFn35-23" source="ih5rEid3sKnyZheTFn35-1" target="I9UYTtLKanYau_QNqnks-4">
          <mxGeometry relative="1" as="geometry" />
        </mxCell>
        <mxCell id="ih5rEid3sKnyZheTFn35-1" value="START" style="rounded=1;whiteSpace=wrap;html=1;fontStyle=5;" vertex="1" parent="ih5rEid3sKnyZheTFn35-23">
          <mxGeometry x="721.24" y="70.94999999999999" width="120" height="60" as="geometry" />
        </mxCell>
        <mxCell id="I9UYTtLKanYau_QNqnks-29" value="A" style="ellipse;whiteSpace=wrap;html=1;aspect=fixed;fontFamily=Avenir Next;fontSize=9;fontStyle=1" parent="ih5rEid3sKnyZheTFn35-23" vertex="1">
          <mxGeometry x="751.55" y="870.95" width="59.37" height="59.37" as="geometry" />
        </mxCell>
        <mxCell id="ih5rEid3sKnyZheTFn35-10" value="Brugerens ID" style="strokeWidth=2;html=1;shape=mxgraph.flowchart.annotation_2;align=left;labelPosition=right;pointerEvents=1;fontFamily=Avenir Next;fontStyle=1;" vertex="1" parent="ih5rEid3sKnyZheTFn35-23">
          <mxGeometry x="916.37" y="470.95" width="137.25" height="299.37" as="geometry" />
        </mxCell>
        <mxCell id="ih5rEid3sKnyZheTFn35-6" value="&amp;nbsp;Introduktion&lt;br style=&quot;border-color: var(--border-color);&quot;&gt;&lt;span style=&quot;&quot;&gt;&amp;nbsp;til ny bruger&lt;/span&gt;" style="strokeWidth=2;html=1;shape=mxgraph.flowchart.annotation_2;align=left;labelPosition=right;pointerEvents=1;fontFamily=Avenir Next;fontStyle=1;" vertex="1" parent="ih5rEid3sKnyZheTFn35-23">
          <mxGeometry x="915" y="152.2" width="140" height="297.8" as="geometry" />
        </mxCell>
        <mxCell id="I9UYTtLKanYau_QNqnks-30" value="A" style="ellipse;whiteSpace=wrap;html=1;aspect=fixed;fontFamily=Avenir Next;fontStyle=1;fontSize=9;" parent="ih5rEid3sKnyZheTFn35-23" vertex="1">
          <mxGeometry x="1427" y="70.32" width="60.63" height="60.63" as="geometry" />
        </mxCell>
        <mxCell id="I9UYTtLKanYau_QNqnks-32" value="Løkke" style="rhombus;whiteSpace=wrap;html=1;fontFamily=Avenir Next;fontSize=9;fontStyle=1;" parent="ih5rEid3sKnyZheTFn35-23" vertex="1">
          <mxGeometry x="1379.82" y="151.26" width="155" height="58.12" as="geometry" />
        </mxCell>
        <mxCell id="I9UYTtLKanYau_QNqnks-34" value="&lt;div style=&quot;&quot;&gt;&lt;span style=&quot;background-color: initial;&quot;&gt;&lt;b style=&quot;&quot;&gt;&lt;font style=&quot;font-size: 9px;&quot;&gt;KeyboardInterrupt:&lt;/font&gt;&lt;/b&gt;&lt;/span&gt;&lt;br&gt;&lt;/div&gt;&lt;div style=&quot;&quot;&gt;&lt;font size=&quot;1&quot;&gt;&lt;i&gt;ctrl-c&lt;/i&gt;&lt;/font&gt;&lt;/div&gt;" style="rounded=1;whiteSpace=wrap;html=1;fontFamily=Avenir Next;fontSize=10;" parent="ih5rEid3sKnyZheTFn35-23" vertex="1">
          <mxGeometry x="1660" y="151.26" width="120" height="60" as="geometry" />
        </mxCell>
        <mxCell id="I9UYTtLKanYau_QNqnks-40" value="&lt;b style=&quot;font-size: 9px;&quot;&gt;Besked skal printes i shell:&lt;br&gt;&lt;/b&gt;&lt;font size=&quot;1&quot;&gt;&lt;i&gt;afsendelsestidspunkt for beskeden&lt;/i&gt;&lt;/font&gt;" style="shape=parallelogram;perimeter=parallelogramPerimeter;whiteSpace=wrap;html=1;fixedSize=1;fontFamily=Avenir Next;" parent="ih5rEid3sKnyZheTFn35-23" vertex="1">
          <mxGeometry x="1360" y="230.95" width="197.32" height="59.37" as="geometry" />
        </mxCell>
        <mxCell id="I9UYTtLKanYau_QNqnks-42" value="&lt;b style=&quot;font-size: 9px;&quot;&gt;Klient skal input players&lt;br style=&quot;font-size: 9px;&quot;&gt;&lt;/b&gt;&lt;i&gt;&amp;nbsp;observations tidspunkt&lt;/i&gt;" style="shape=parallelogram;perimeter=parallelogramPerimeter;whiteSpace=wrap;html=1;fixedSize=1;fontFamily=Avenir Next;fontSize=9;" parent="ih5rEid3sKnyZheTFn35-23" vertex="1">
          <mxGeometry x="1360" y="310.95" width="197.32" height="59.37" as="geometry" />
        </mxCell>
        <mxCell id="I9UYTtLKanYau_QNqnks-44" value="&lt;b style=&quot;font-size: 9px;&quot;&gt;Klient skal input players&lt;br&gt;&lt;/b&gt;&lt;font style=&quot;font-size: 9px;&quot;&gt;&lt;i&gt;&amp;nbsp;rygnummer&lt;/i&gt;&lt;/font&gt;" style="shape=parallelogram;perimeter=parallelogramPerimeter;whiteSpace=wrap;html=1;fixedSize=1;fontFamily=Avenir Next;" parent="ih5rEid3sKnyZheTFn35-23" vertex="1">
          <mxGeometry x="1360" y="390.95" width="197.32" height="59.37" as="geometry" />
        </mxCell>
        <mxCell id="I9UYTtLKanYau_QNqnks-46" value="&lt;b style=&quot;font-size: 9px;&quot;&gt;Klient skal input players&lt;br&gt;&lt;/b&gt;&lt;font style=&quot;font-size: 9px;&quot;&gt;&lt;i&gt;navn&lt;/i&gt;&lt;/font&gt;" style="shape=parallelogram;perimeter=parallelogramPerimeter;whiteSpace=wrap;html=1;fixedSize=1;fontFamily=Avenir Next;" parent="ih5rEid3sKnyZheTFn35-23" vertex="1">
          <mxGeometry x="1360" y="470.95" width="197.32" height="59.37" as="geometry" />
        </mxCell>
        <mxCell id="I9UYTtLKanYau_QNqnks-59" value="&lt;font style=&quot;font-size: 9px;&quot;&gt;&lt;b&gt;Inputs skal samles i en variabel kaldet message og sendes til server.py&lt;/b&gt;&lt;/font&gt;" style="shape=parallelogram;perimeter=parallelogramPerimeter;whiteSpace=wrap;html=1;fixedSize=1;fontFamily=Avenir Next;" parent="ih5rEid3sKnyZheTFn35-23" vertex="1">
          <mxGeometry x="1360" y="870.95" width="197.32" height="59.37" as="geometry" />
        </mxCell>
        <mxCell id="I9UYTtLKanYau_QNqnks-48" value="&lt;b style=&quot;font-size: 9px;&quot;&gt;Klient skal input players&lt;br&gt;&lt;/b&gt;&lt;font style=&quot;font-size: 9px;&quot;&gt;&lt;i&gt;team&lt;/i&gt;&lt;/font&gt;" style="shape=parallelogram;perimeter=parallelogramPerimeter;whiteSpace=wrap;html=1;fixedSize=1;fontFamily=Avenir Next;" parent="ih5rEid3sKnyZheTFn35-23" vertex="1">
          <mxGeometry x="1360" y="550.95" width="197.32" height="59.37" as="geometry" />
        </mxCell>
        <mxCell id="I9UYTtLKanYau_QNqnks-50" value="&lt;b style=&quot;font-size: 9px;&quot;&gt;Klient skal input players&lt;br&gt;&lt;/b&gt;&lt;font style=&quot;font-size: 9px;&quot;&gt;&lt;i&gt;observation&lt;/i&gt;&lt;/font&gt;" style="shape=parallelogram;perimeter=parallelogramPerimeter;whiteSpace=wrap;html=1;fixedSize=1;fontFamily=Avenir Next;" parent="ih5rEid3sKnyZheTFn35-23" vertex="1">
          <mxGeometry x="1360" y="630.95" width="204.07" height="59.37" as="geometry" />
        </mxCell>
        <mxCell id="I9UYTtLKanYau_QNqnks-52" value="&lt;b style=&quot;font-size: 9px;&quot;&gt;Besked skal printes i shell:&lt;br&gt;&lt;/b&gt;&lt;font style=&quot;font-size: 9px;&quot;&gt;&lt;i&gt;SSO Serveren har&lt;br&gt;&amp;nbsp;modtaget beskeden&lt;/i&gt;&lt;/font&gt;" style="shape=parallelogram;perimeter=parallelogramPerimeter;whiteSpace=wrap;html=1;fixedSize=1;fontFamily=Avenir Next;" parent="ih5rEid3sKnyZheTFn35-23" vertex="1">
          <mxGeometry x="1360" y="710.95" width="197.32" height="59.37" as="geometry" />
        </mxCell>
        <mxCell id="I9UYTtLKanYau_QNqnks-54" value="&lt;b style=&quot;font-size: 9px;&quot;&gt;Besked skal printes i shell:&lt;br&gt;&lt;/b&gt;&lt;font style=&quot;font-size: 9px;&quot;&gt;&lt;i&gt;Du har mulighed for&lt;br&gt;&amp;nbsp;at afgive nye oplysninger&lt;/i&gt;&lt;/font&gt;" style="shape=parallelogram;perimeter=parallelogramPerimeter;whiteSpace=wrap;html=1;fixedSize=1;fontFamily=Avenir Next;" parent="ih5rEid3sKnyZheTFn35-23" vertex="1">
          <mxGeometry x="1360" y="790.95" width="197.32" height="59.37" as="geometry" />
        </mxCell>
        <mxCell id="ih5rEid3sKnyZheTFn35-2" value="SLUT" style="rounded=1;whiteSpace=wrap;html=1;fontFamily=Avenir Next;fontStyle=5;" vertex="1" parent="ih5rEid3sKnyZheTFn35-23">
          <mxGeometry x="1660" y="70.94999999999999" width="120" height="60" as="geometry" />
        </mxCell>
        <mxCell id="ih5rEid3sKnyZheTFn35-18" value="Input variabler bliver skrevet som message i servers shell" style="strokeWidth=2;html=1;shape=mxgraph.flowchart.annotation_2;align=left;labelPosition=right;pointerEvents=1;fontFamily=Avenir Next;fontStyle=1;" vertex="1" parent="ih5rEid3sKnyZheTFn35-23">
          <mxGeometry x="1595" y="870" width="130" height="60.32" as="geometry" />
        </mxCell>
        <mxCell id="ih5rEid3sKnyZheTFn35-17" value="Orienter bruger om at de kan lave nye observationer" style="strokeWidth=2;html=1;shape=mxgraph.flowchart.annotation_2;align=left;labelPosition=right;pointerEvents=1;fontFamily=Avenir Next;fontStyle=1;" vertex="1" parent="ih5rEid3sKnyZheTFn35-23">
          <mxGeometry x="1595" y="710" width="130" height="140.32" as="geometry" />
        </mxCell>
        <mxCell id="ih5rEid3sKnyZheTFn35-37" style="edgeStyle=orthogonalEdgeStyle;rounded=0;orthogonalLoop=1;jettySize=auto;html=1;entryX=0.5;entryY=0;entryDx=0;entryDy=0;" edge="1" parent="ih5rEid3sKnyZheTFn35-23">
          <mxGeometry relative="1" as="geometry">
            <mxPoint x="781.17" y="210.32" as="sourcePoint" />
            <mxPoint x="781.17" y="230.32" as="targetPoint" />
          </mxGeometry>
        </mxCell>
        <mxCell id="ih5rEid3sKnyZheTFn35-38" style="edgeStyle=orthogonalEdgeStyle;rounded=0;orthogonalLoop=1;jettySize=auto;html=1;entryX=0.5;entryY=0;entryDx=0;entryDy=0;" edge="1" parent="ih5rEid3sKnyZheTFn35-23">
          <mxGeometry relative="1" as="geometry">
            <mxPoint x="781.18" y="290.32" as="sourcePoint" />
            <mxPoint x="781.18" y="310.32" as="targetPoint" />
          </mxGeometry>
        </mxCell>
        <mxCell id="ih5rEid3sKnyZheTFn35-40" style="edgeStyle=orthogonalEdgeStyle;rounded=0;orthogonalLoop=1;jettySize=auto;html=1;entryX=0.5;entryY=0;entryDx=0;entryDy=0;" edge="1" parent="ih5rEid3sKnyZheTFn35-23">
          <mxGeometry relative="1" as="geometry">
            <mxPoint x="781.14" y="370.32" as="sourcePoint" />
            <mxPoint x="781.14" y="390.32" as="targetPoint" />
          </mxGeometry>
        </mxCell>
        <mxCell id="ih5rEid3sKnyZheTFn35-42" style="edgeStyle=orthogonalEdgeStyle;rounded=0;orthogonalLoop=1;jettySize=auto;html=1;entryX=0.5;entryY=0;entryDx=0;entryDy=0;" edge="1" parent="ih5rEid3sKnyZheTFn35-23">
          <mxGeometry relative="1" as="geometry">
            <mxPoint x="781.18" y="450.31999999999994" as="sourcePoint" />
            <mxPoint x="781.18" y="470.31999999999994" as="targetPoint" />
          </mxGeometry>
        </mxCell>
        <mxCell id="ih5rEid3sKnyZheTFn35-43" style="edgeStyle=orthogonalEdgeStyle;rounded=0;orthogonalLoop=1;jettySize=auto;html=1;entryX=0.5;entryY=0;entryDx=0;entryDy=0;" edge="1" parent="ih5rEid3sKnyZheTFn35-23">
          <mxGeometry relative="1" as="geometry">
            <mxPoint x="781.18" y="530.3199999999999" as="sourcePoint" />
            <mxPoint x="781.18" y="550.3199999999999" as="targetPoint" />
          </mxGeometry>
        </mxCell>
        <mxCell id="ih5rEid3sKnyZheTFn35-44" style="edgeStyle=orthogonalEdgeStyle;rounded=0;orthogonalLoop=1;jettySize=auto;html=1;entryX=0.5;entryY=0;entryDx=0;entryDy=0;" edge="1" parent="ih5rEid3sKnyZheTFn35-23">
          <mxGeometry relative="1" as="geometry">
            <mxPoint x="781.1899999999999" y="610.3199999999999" as="sourcePoint" />
            <mxPoint x="781.1899999999999" y="630.3199999999999" as="targetPoint" />
          </mxGeometry>
        </mxCell>
        <mxCell id="ih5rEid3sKnyZheTFn35-45" style="edgeStyle=orthogonalEdgeStyle;rounded=0;orthogonalLoop=1;jettySize=auto;html=1;entryX=0.5;entryY=0;entryDx=0;entryDy=0;" edge="1" parent="ih5rEid3sKnyZheTFn35-23">
          <mxGeometry relative="1" as="geometry">
            <mxPoint x="781.2199999999999" y="690.3199999999999" as="sourcePoint" />
            <mxPoint x="781.2199999999999" y="710.3199999999999" as="targetPoint" />
          </mxGeometry>
        </mxCell>
        <mxCell id="ih5rEid3sKnyZheTFn35-46" style="edgeStyle=orthogonalEdgeStyle;rounded=0;orthogonalLoop=1;jettySize=auto;html=1;entryX=0.5;entryY=0;entryDx=0;entryDy=0;" edge="1" parent="ih5rEid3sKnyZheTFn35-23">
          <mxGeometry relative="1" as="geometry">
            <mxPoint x="781.1999999999999" y="770.16" as="sourcePoint" />
            <mxPoint x="781.1999999999999" y="790.16" as="targetPoint" />
          </mxGeometry>
        </mxCell>
        <mxCell id="ih5rEid3sKnyZheTFn35-47" style="edgeStyle=orthogonalEdgeStyle;rounded=0;orthogonalLoop=1;jettySize=auto;html=1;entryX=0.5;entryY=0;entryDx=0;entryDy=0;" edge="1" parent="ih5rEid3sKnyZheTFn35-23">
          <mxGeometry relative="1" as="geometry">
            <mxPoint x="781.17" y="850.3199999999999" as="sourcePoint" />
            <mxPoint x="781.17" y="870.3199999999999" as="targetPoint" />
          </mxGeometry>
        </mxCell>
        <mxCell id="ih5rEid3sKnyZheTFn35-59" style="edgeStyle=orthogonalEdgeStyle;rounded=0;orthogonalLoop=1;jettySize=auto;html=1;entryX=0.5;entryY=0;entryDx=0;entryDy=0;" edge="1" parent="ih5rEid3sKnyZheTFn35-23">
          <mxGeometry relative="1" as="geometry">
            <mxPoint x="1457.27" y="210.31999999999994" as="sourcePoint" />
            <mxPoint x="1457.27" y="230.31999999999994" as="targetPoint" />
          </mxGeometry>
        </mxCell>
        <mxCell id="ih5rEid3sKnyZheTFn35-60" style="edgeStyle=orthogonalEdgeStyle;rounded=0;orthogonalLoop=1;jettySize=auto;html=1;entryX=0.5;entryY=0;entryDx=0;entryDy=0;exitX=0.5;exitY=1;exitDx=0;exitDy=0;" edge="1" parent="ih5rEid3sKnyZheTFn35-23" source="I9UYTtLKanYau_QNqnks-30">
          <mxGeometry relative="1" as="geometry">
            <mxPoint x="1457.22" y="132.25999999999993" as="sourcePoint" />
            <mxPoint x="1457.22" y="152.25999999999993" as="targetPoint" />
          </mxGeometry>
        </mxCell>
        <mxCell id="ih5rEid3sKnyZheTFn35-61" style="edgeStyle=orthogonalEdgeStyle;rounded=0;orthogonalLoop=1;jettySize=auto;html=1;entryX=0.5;entryY=0;entryDx=0;entryDy=0;" edge="1" parent="ih5rEid3sKnyZheTFn35-23">
          <mxGeometry relative="1" as="geometry">
            <mxPoint x="1457.26" y="290.31999999999994" as="sourcePoint" />
            <mxPoint x="1457.26" y="310.31999999999994" as="targetPoint" />
          </mxGeometry>
        </mxCell>
        <mxCell id="ih5rEid3sKnyZheTFn35-62" style="edgeStyle=orthogonalEdgeStyle;rounded=0;orthogonalLoop=1;jettySize=auto;html=1;entryX=0.5;entryY=0;entryDx=0;entryDy=0;" edge="1" parent="ih5rEid3sKnyZheTFn35-23">
          <mxGeometry relative="1" as="geometry">
            <mxPoint x="1457.26" y="370.31999999999994" as="sourcePoint" />
            <mxPoint x="1457.26" y="390.31999999999994" as="targetPoint" />
          </mxGeometry>
        </mxCell>
        <mxCell id="ih5rEid3sKnyZheTFn35-63" style="edgeStyle=orthogonalEdgeStyle;rounded=0;orthogonalLoop=1;jettySize=auto;html=1;entryX=0.492;entryY=-0.009;entryDx=0;entryDy=0;entryPerimeter=0;" edge="1" parent="ih5rEid3sKnyZheTFn35-23" target="I9UYTtLKanYau_QNqnks-46">
          <mxGeometry relative="1" as="geometry">
            <mxPoint x="1457.24" y="449.9999999999999" as="sourcePoint" />
            <mxPoint x="1457.24" y="469.9999999999999" as="targetPoint" />
          </mxGeometry>
        </mxCell>
        <mxCell id="ih5rEid3sKnyZheTFn35-65" style="edgeStyle=orthogonalEdgeStyle;rounded=0;orthogonalLoop=1;jettySize=auto;html=1;entryX=0.492;entryY=-0.009;entryDx=0;entryDy=0;entryPerimeter=0;" edge="1" parent="ih5rEid3sKnyZheTFn35-23">
          <mxGeometry relative="1" as="geometry">
            <mxPoint x="1457.45" y="530.3199999999998" as="sourcePoint" />
            <mxPoint x="1457.21" y="550.32" as="targetPoint" />
          </mxGeometry>
        </mxCell>
        <mxCell id="ih5rEid3sKnyZheTFn35-66" style="edgeStyle=orthogonalEdgeStyle;rounded=0;orthogonalLoop=1;jettySize=auto;html=1;entryX=0.492;entryY=-0.009;entryDx=0;entryDy=0;entryPerimeter=0;" edge="1" parent="ih5rEid3sKnyZheTFn35-23">
          <mxGeometry relative="1" as="geometry">
            <mxPoint x="1457.44" y="610.3199999999998" as="sourcePoint" />
            <mxPoint x="1457.2" y="630.32" as="targetPoint" />
          </mxGeometry>
        </mxCell>
        <mxCell id="ih5rEid3sKnyZheTFn35-67" style="edgeStyle=orthogonalEdgeStyle;rounded=0;orthogonalLoop=1;jettySize=auto;html=1;entryX=0.492;entryY=-0.009;entryDx=0;entryDy=0;entryPerimeter=0;" edge="1" parent="ih5rEid3sKnyZheTFn35-23">
          <mxGeometry relative="1" as="geometry">
            <mxPoint x="1457.44" y="690.3199999999998" as="sourcePoint" />
            <mxPoint x="1457.2" y="710.32" as="targetPoint" />
          </mxGeometry>
        </mxCell>
        <mxCell id="ih5rEid3sKnyZheTFn35-68" style="edgeStyle=orthogonalEdgeStyle;rounded=0;orthogonalLoop=1;jettySize=auto;html=1;entryX=0.492;entryY=-0.009;entryDx=0;entryDy=0;entryPerimeter=0;" edge="1" parent="ih5rEid3sKnyZheTFn35-23">
          <mxGeometry relative="1" as="geometry">
            <mxPoint x="1457.44" y="770.1599999999999" as="sourcePoint" />
            <mxPoint x="1457.2" y="790.1600000000001" as="targetPoint" />
          </mxGeometry>
        </mxCell>
        <mxCell id="ih5rEid3sKnyZheTFn35-69" style="edgeStyle=orthogonalEdgeStyle;rounded=0;orthogonalLoop=1;jettySize=auto;html=1;entryX=0.492;entryY=-0.009;entryDx=0;entryDy=0;entryPerimeter=0;" edge="1" parent="ih5rEid3sKnyZheTFn35-23">
          <mxGeometry relative="1" as="geometry">
            <mxPoint x="1457.44" y="850.3399999999998" as="sourcePoint" />
            <mxPoint x="1457.2" y="870.34" as="targetPoint" />
          </mxGeometry>
        </mxCell>
        <mxCell id="ih5rEid3sKnyZheTFn35-70" value="" style="endArrow=classic;html=1;rounded=0;entryX=0;entryY=0.5;entryDx=0;entryDy=0;" edge="1" parent="ih5rEid3sKnyZheTFn35-23">
          <mxGeometry width="50" height="50" relative="1" as="geometry">
            <mxPoint x="1534.8200000000002" y="180.48" as="sourcePoint" />
            <mxPoint x="1660" y="180.79000000000005" as="targetPoint" />
          </mxGeometry>
        </mxCell>
        <mxCell id="ih5rEid3sKnyZheTFn35-71" value="" style="endArrow=classic;html=1;rounded=0;entryX=0.5;entryY=1;entryDx=0;entryDy=0;" edge="1" parent="ih5rEid3sKnyZheTFn35-23" target="ih5rEid3sKnyZheTFn35-2">
          <mxGeometry width="50" height="50" relative="1" as="geometry">
            <mxPoint x="1720" y="150.95" as="sourcePoint" />
            <mxPoint x="1770" y="100.94999999999999" as="targetPoint" />
          </mxGeometry>
        </mxCell>
        <mxCell id="ih5rEid3sKnyZheTFn35-72" value="" style="endArrow=classic;html=1;rounded=0;entryX=-0.009;entryY=0.504;entryDx=0;entryDy=0;entryPerimeter=0;" edge="1" parent="ih5rEid3sKnyZheTFn35-23" target="I9UYTtLKanYau_QNqnks-32">
          <mxGeometry width="50" height="50" relative="1" as="geometry">
            <mxPoint x="1460" y="930.32" as="sourcePoint" />
            <mxPoint x="1378.27" y="181.31812000000002" as="targetPoint" />
            <Array as="points">
              <mxPoint x="1460" y="970.63" />
              <mxPoint x="1320" y="970.63" />
              <mxPoint x="1320" y="180.63" />
            </Array>
          </mxGeometry>
        </mxCell>
        <mxCell id="ih5rEid3sKnyZheTFn35-75" value="Afslutning på introduktion" style="strokeWidth=2;html=1;shape=mxgraph.flowchart.annotation_2;align=left;labelPosition=right;pointerEvents=1;fontFamily=Avenir Next;fontStyle=1;" vertex="1" parent="ih5rEid3sKnyZheTFn35-23">
          <mxGeometry x="915" y="790.32" width="137.25" height="59.68" as="geometry" />
        </mxCell>
        <mxCell id="ih5rEid3sKnyZheTFn35-16" value="Observant oplysninger" style="strokeWidth=2;html=1;shape=mxgraph.flowchart.annotation_2;align=left;labelPosition=right;pointerEvents=1;fontFamily=Avenir Next;fontStyle=1;" vertex="1" parent="1">
          <mxGeometry x="794.62" y="310" width="130" height="460" as="geometry" />
        </mxCell>
        <mxCell id="ih5rEid3sKnyZheTFn35-21" value="KLIENT.PY FIL" style="text;html=1;align=center;verticalAlign=middle;whiteSpace=wrap;rounded=0;fontSize=60;fontFamily=Avenir Next;fontStyle=1;" vertex="1" parent="1">
          <mxGeometry x="-700" y="600" width="410" height="30" as="geometry" />
        </mxCell>
        <mxCell id="ih5rEid3sKnyZheTFn35-22" value="Studiegrupp 6" style="text;html=1;align=center;verticalAlign=middle;whiteSpace=wrap;rounded=0;fontSize=33;fontFamily=Avenir Next;fontStyle=1;" vertex="1" parent="1">
          <mxGeometry x="-790" y="540" width="410" height="30" as="geometry" />
        </mxCell>
      </root>
    </mxGraphModel>
  </diagram>
</mxfile>
